<svg width="1440" height="820" viewBox="0 0 1440 820" fill="none" xmlns="http://www.w3.org/2000/svg">
<g clip-path="url(#clip0_)">
<circle cx="881" cy="-137" r="559" transform="rotate(-180 881 -137)" fill="url(#paint0_radial_)"/>
<circle cx="559" cy="-137" r="559" transform="rotate(-180 559 -137)" fill="url(#paint1_radial_)"/>
<rect x="541" y="140" width="358" height="540" fill="#202024"/>
<mask id="mask0_" style="mask-type:alpha" maskUnits="userSpaceOnUse" x="540" y="113" width="358" height="540">
<rect x="540" y="113" width="358" height="540" fill="#202024"/>
</mask>
<g mask="url(#mask0_)">
<path d="M898 174.492V-283.824L718.5 -387L539 -283.824V174.492L718.5 277.674L898 174.492Z" fill="url(#paint2_linear_)"/>
<g style="mix-blend-mode:luminosity" opacity="0.4">
<path d="M540.801 72.3496V175.159L630.101 226.569L719.4 175.159V72.3496L630.101 20.9399L540.801 72.3496Z" fill="url(#paint3_linear_)"/>
<path d="M540.801 -30.4651V72.3445L630.101 123.754L719.4 72.3445V-30.4651L630.101 -81.8747L540.801 -30.4651Z" fill="url(#paint4_linear_)"/>
<path d="M719.4 175.159V72.3492L808.7 20.9395L898 72.3492V175.159L808.7 226.568L719.4 175.159Z" fill="url(#paint5_linear_)"/>
<path d="M898 -30.4651V72.3445L808.7 123.754L719.4 72.3445V-30.4651L808.7 -81.8747L898 -30.4651Z" fill="url(#paint6_linear_)"/>
<path d="M808.7 226.59V123.781L719.4 72.3711L630.101 123.781V226.59L719.4 278L808.7 226.59Z" fill="url(#paint7_linear_)"/>
</g>
</g>
<rect x="680" y="156" width="80" height="8" fill="#121214"/>
<rect x="688" width="64" height="158" fill="url(#paint8_linear_)"/>
</g>
<defs>
<radialGradient id="paint0_radial_" cx="0" cy="0" r="1" gradientUnits="userSpaceOnUse" gradientTransform="translate(881 -137) rotate(90) scale(559)">
<stop stop-color="#FFC323"/>
<stop offset="1" stop-color="#121214" stop-opacity="0"/>
</radialGradient>
<radialGradient id="paint1_radial_" cx="0" cy="0" r="1" gradientUnits="userSpaceOnUse" gradientTransform="translate(559 -137) rotate(90) scale(559)">
<stop stop-color="#FF3D6E"/>
<stop offset="1" stop-color="#121214" stop-opacity="0"/>
</radialGradient>
<linearGradient id="paint2_linear_" x1="539" y1="-371.234" x2="978.976" y2="-310.679" gradientUnits="userSpaceOnUse">
<stop stop-color="#FF008E"/>
<stop offset="1" stop-color="#FFCD1E"/>
</linearGradient>
<linearGradient id="paint3_linear_" x1="630.101" y1="221.84" x2="541.185" y2="70.1039" gradientUnits="userSpaceOnUse">
<stop stop-color="#8257E5"/>
<stop offset="1" stop-color="#FF008E" stop-opacity="0"/>
</linearGradient>
<linearGradient id="paint4_linear_" x1="630.101" y1="119.026" x2="541.185" y2="-32.7107" gradientUnits="userSpaceOnUse">
<stop stop-color="#8257E5"/>
<stop offset="1" stop-color="#FF008E" stop-opacity="0"/>
</linearGradient>
<linearGradient id="paint5_linear_" x1="898" y1="180.937" x2="719.676" y2="73.328" gradientUnits="userSpaceOnUse">
<stop stop-color="#FF008E" stop-opacity="0"/>
<stop offset="1" stop-color="#FFCD1E"/>
</linearGradient>
<linearGradient id="paint6_linear_" x1="808.7" y1="119.026" x2="897.615" y2="-32.7107" gradientUnits="userSpaceOnUse">
<stop stop-color="#8257E5"/>
<stop offset="1" stop-color="#FF008E" stop-opacity="0"/>
</linearGradient>
<linearGradient id="paint7_linear_" x1="719.4" y1="77.0994" x2="808.316" y2="228.836" gradientUnits="userSpaceOnUse">
<stop stop-color="#8257E5"/>
<stop offset="1" stop-color="#FF008E" stop-opacity="0"/>
</linearGradient>
<linearGradient id="paint8_linear_" x1="649.5" y1="4.93019e-08" x2="782" y2="158" gradientUnits="userSpaceOnUse">
<stop stop-color="#FF008E"/>
<stop offset="1" stop-color="#FFCD1E"/>
</linearGradient>
<clipPath id="clip0_">
<rect width="1440" height="820" fill="white"/>
</clipPath>
</defs>
</svg>
